<?xml version="1.0" encoding="UTF-8" standalone="no"?>
<!DOCTYPE svg PUBLIC "-//W3C//DTD SVG 1.1//EN" "http://www.w3.org/Graphics/SVG/1.1/DTD/svg11.dtd">
<svg width="100%" height="100%" viewBox="0 0 48 48" version="1.1" xmlns="http://www.w3.org/2000/svg" xmlns:xlink="http://www.w3.org/1999/xlink" xml:space="preserve" xmlns:serif="http://www.serif.com/" style="fill-rule:evenodd;clip-rule:evenodd;stroke-linejoin:round;stroke-miterlimit:2;">
    <g transform="matrix(1.73969,0,0,1.73969,-17.7525,-17.7525)">
        <path d="M26.466,24.832C26.466,26.194 25.362,27.298 24,27.298C22.638,27.298 21.534,26.194 21.534,24.832C21.534,23.47 22.638,22.366 24,22.366C25.362,22.366 26.466,23.47 26.466,24.832ZM27.705,31.224L26.46,29.079C27.933,28.229 28.931,26.657 28.931,24.832C28.931,22.108 26.725,19.901 24,19.901C21.275,19.901 19.069,22.108 19.069,24.832C19.069,26.657 20.067,28.229 21.54,29.085L20.295,31.231C18.088,29.948 16.603,27.569 16.603,24.832C16.603,20.745 19.913,17.435 24,17.435C28.087,17.435 31.397,20.745 31.397,24.832C31.397,27.569 29.912,29.948 27.705,31.224L27.705,31.224ZM36.328,24.832C36.328,29.388 33.85,33.357 30.17,35.496L28.938,33.363C31.878,31.656 33.863,28.475 33.863,24.832C33.863,19.383 29.449,14.969 24,14.969C18.551,14.969 14.137,19.383 14.137,24.832C14.137,28.475 16.122,31.656 19.062,33.357L17.83,35.49C14.15,33.357 11.672,29.388 11.672,24.832C11.672,18.021 17.189,12.504 24,12.504C30.805,12.504 36.328,18.021 36.328,24.832L36.328,24.832Z" style="fill-rule:nonzero;"/>
    </g>
</svg>
